<svg viewBox="0 0 30.9404 23.205" xmlns="http://www.w3.org/2000/svg" xmlns:xlink="http://www.w3.org/1999/xlink" width="30.940430" height="23.204956" fill="none" customFrame="#000000">
	<path id="“" d="M6.29 23.205C4.42 23.205 2.89 22.5817 1.7 21.335C0.566667 20.0883 0 18.4167 0 16.32C0 12.6367 1.21833 9.435 3.655 6.715C6.14833 3.995 9.12333 1.75666 12.58 0L13.43 1.445C12.0133 2.35166 10.6817 3.51333 9.435 4.93C8.245 6.34667 7.31 7.87667 6.63 9.52L9.01 11.305C9.97333 11.9283 10.7667 12.7783 11.39 13.855C12.0133 14.875 12.325 15.8667 12.325 16.83C12.325 18.6433 11.7583 20.1733 10.625 21.42C9.54833 22.61 8.10333 23.205 6.29 23.205ZM23.8 23.205C21.93 23.205 20.4 22.5817 19.21 21.335C18.0767 20.0883 17.51 18.4167 17.51 16.32C17.51 12.6367 18.7283 9.435 21.165 6.715C23.6583 3.995 26.6333 1.75666 30.09 0L30.94 1.445C29.5233 2.35166 28.1917 3.51333 26.945 4.93C25.755 6.34667 24.82 7.87667 24.14 9.52L26.52 11.305C27.4833 11.9283 28.2767 12.7783 28.9 13.855C29.5233 14.875 29.835 15.8667 29.835 16.83C29.835 18.6433 29.2683 20.1733 28.135 21.42C27.0583 22.61 25.6133 23.205 23.8 23.205Z" fill="rgb(41,47,54)" fill-rule="nonzero" />
</svg>
