<svg width="34" height="34" viewBox="0 0 34 34" fill="none" xmlns="http://www.w3.org/2000/svg">
<path d="M32.0022 26.0749C30.7806 24.8442 27.8221 23.0482 26.3867 22.3243C24.5174 21.3828 24.3635 21.3059 22.8943 22.3974C21.9142 23.1258 21.2627 23.7766 20.1157 23.532C18.9688 23.2874 16.4764 21.9082 14.294 19.7329C12.1117 17.5576 10.6524 14.9931 10.407 13.8501C10.1616 12.7071 10.8232 12.0632 11.5447 11.081C12.5617 9.69642 12.4848 9.46566 11.6155 7.59651C10.9378 6.14273 9.08931 3.21208 7.85389 1.99675C6.53232 0.691421 6.53232 0.92218 5.68076 1.27601C4.98749 1.56768 4.32239 1.92222 3.69379 2.3352C2.46299 3.15285 1.7799 3.83206 1.30219 4.85278C0.82449 5.87351 0.609869 8.26648 3.07685 12.7478C5.54383 17.2292 7.27465 19.5206 10.857 23.0928C14.4394 26.6649 17.1941 28.5856 21.2211 30.844C26.2028 33.6339 28.1136 33.09 29.1375 32.6131C30.1614 32.1362 30.8437 31.4593 31.6629 30.2286C32.077 29.6011 32.4324 28.9368 32.7245 28.2441C33.0791 27.3957 33.3099 27.3957 32.0022 26.0749Z" stroke="#CDA274" stroke-width="2" stroke-miterlimit="10"/>
</svg>
