<svg viewBox="0 0 72.7998 54.6001" xmlns="http://www.w3.org/2000/svg" xmlns:xlink="http://www.w3.org/1999/xlink" width="72.799805" height="54.600098" fill="none" customFrame="#000000">
	<path id="“" d="M14.8 54.6C10.4 54.6 6.8 53.1333 4 50.2C1.33333 47.2667 0 43.3333 0 38.4C0 29.7333 2.86667 22.2 8.6 15.8C14.4667 9.39999 21.4667 4.13333 29.6 0L31.6 3.39999C28.2667 5.53333 25.1333 8.26666 22.2 11.6C19.4 14.9333 17.2 18.5333 15.6 22.4L21.2 26.6C23.4667 28.0667 25.3333 30.0667 26.8 32.6C28.2667 35 29 37.3333 29 39.6C29 43.8667 27.6667 47.4667 25 50.4C22.4667 53.2 19.0667 54.6 14.8 54.6ZM56 54.6C51.6 54.6 48 53.1333 45.2 50.2C42.5333 47.2667 41.2 43.3333 41.2 38.4C41.2 29.7333 44.0667 22.2 49.8 15.8C55.6667 9.39999 62.6667 4.13333 70.8 0L72.8 3.39999C69.4667 5.53333 66.3333 8.26666 63.4 11.6C60.6 14.9333 58.4 18.5333 56.8 22.4L62.4 26.6C64.6667 28.0667 66.5333 30.0667 68 32.6C69.4667 35 70.2 37.3333 70.2 39.6C70.2 43.8667 68.8667 47.4667 66.2 50.4C63.6667 53.2 60.2667 54.6 56 54.6Z" fill="rgb(205,162,116)" fill-rule="nonzero" transform="matrix(-1,-8.74228e-08,8.74228e-08,-1,72.7998,54.6001)" />
</svg>
